<?xml version="1.0" encoding="UTF-8" standalone="no"?>
<!-- Created with Inkscape (http://www.inkscape.org/) -->

<svg
   width="40.678684"
   height="46.116074"
   viewBox="0 0 40.678684 46.116074"
   version="1.1"
   id="svg1"
   xmlns:xlink="http://www.w3.org/1999/xlink"
   xmlns="http://www.w3.org/2000/svg"
   xmlns:svg="http://www.w3.org/2000/svg">
  <defs
     id="defs1">
    <linearGradient
       id="linearGradient34">
      <stop
         style="stop-color:#fec400;stop-opacity:1;"
         offset="0"
         id="stop33" />
      <stop
         style="stop-color:#ffb800;stop-opacity:0;"
         offset="1"
         id="stop34" />
    </linearGradient>
    <linearGradient
       id="linearGradient29">
      <stop
         style="stop-color:#ffc775;stop-opacity:1;"
         offset="0"
         id="stop29" />
      <stop
         style="stop-color:#ffb800;stop-opacity:0;"
         offset="1"
         id="stop30" />
    </linearGradient>
    <linearGradient
       id="linearGradient25">
      <stop
         style="stop-color:#ffd001;stop-opacity:1;"
         offset="0"
         id="stop25" />
      <stop
         style="stop-color:#ffb800;stop-opacity:0;"
         offset="1"
         id="stop26" />
    </linearGradient>
    <linearGradient
       id="linearGradient23">
      <stop
         style="stop-color:#ffd430;stop-opacity:1;"
         offset="0"
         id="stop23" />
      <stop
         style="stop-color:#ffb800;stop-opacity:0;"
         offset="1"
         id="stop24" />
    </linearGradient>
    <linearGradient
       id="linearGradient17">
      <stop
         style="stop-color:#ffcd00;stop-opacity:1;"
         offset="0"
         id="stop17" />
      <stop
         style="stop-color:#ffb800;stop-opacity:0;"
         offset="1"
         id="stop18" />
    </linearGradient>
    <linearGradient
       id="linearGradient13">
      <stop
         style="stop-color:#ffd519;stop-opacity:1;"
         offset="0"
         id="stop13" />
      <stop
         style="stop-color:#ffb800;stop-opacity:0;"
         offset="1"
         id="stop14" />
    </linearGradient>
    <linearGradient
       xlink:href="#linearGradient34"
       id="linearGradient9"
       x1="24.203033"
       y1="0.69707632"
       x2="24.105501"
       y2="12.136458"
       gradientUnits="userSpaceOnUse"
       spreadMethod="pad" />
    <linearGradient
       xlink:href="#linearGradient13"
       id="linearGradient14"
       x1="44.482449"
       y1="12.764617"
       x2="34.239761"
       y2="18.031343"
       gradientUnits="userSpaceOnUse"
       gradientTransform="rotate(-5.4575537,35.832153,14.170879)" />
    <linearGradient
       xlink:href="#linearGradient17"
       id="linearGradient18"
       x1="43.456757"
       y1="35.351398"
       x2="33.670734"
       y2="29.499479"
       gradientUnits="userSpaceOnUse"
       gradientTransform="rotate(58.339978,23.512062,23.858167)" />
    <linearGradient
       xlink:href="#linearGradient23"
       id="linearGradient24"
       x1="13.413795"
       y1="43.68713"
       x2="18.439604"
       y2="33.543808"
       gradientUnits="userSpaceOnUse"
       gradientTransform="rotate(-84.68318,24.360786,22.861416)" />
    <linearGradient
       xlink:href="#linearGradient25"
       id="linearGradient26"
       x1="3.9090807"
       y1="35.971485"
       x2="13.53172"
       y2="30.314632"
       gradientUnits="userSpaceOnUse"
       gradientTransform="rotate(-0.82469784,6.0463324,-1.6441485)" />
    <linearGradient
       xlink:href="#linearGradient29"
       id="linearGradient30"
       x1="4.5212359"
       y1="12.307193"
       x2="14.794702"
       y2="17.671452"
       gradientUnits="userSpaceOnUse"
       gradientTransform="rotate(-4.8506096e-4,-64715.449,29749.352)" />
  </defs>
  <g
     id="layer1"
     transform="translate(-3.9438829,-0.78025567)">
    <path
       id="path2"
       style="fill:url(#linearGradient9);fill-rule:nonzero;stroke-width:2.5;stroke-linecap:round"
       d="m 26.752936,3.3301579 c 0,1.4082721 -1.618093,5.5120879 -2.603138,8.8206531 -0.985043,-3.2479913 -2.496666,-7.3438684 -2.496666,-8.8206531 0,-1.4082721 1.141629,-2.54990225 2.549902,-2.54990225 1.408272,0 2.549902,1.14163015 2.549902,2.54990225 z" />
    <path
       id="path2-2"
       style="fill:url(#linearGradient26);stroke-width:2.5;stroke-linecap:round"
       d="M 5.2336311,32.433001 C 6.4577762,31.736798 10.824959,31.114524 14.187912,30.33512 11.851565,32.797079 9.0385178,36.135937 7.7548201,36.866015 6.5306759,37.562218 4.9739262,37.134246 4.2777192,35.910102 3.5815122,34.68596 4.0094897,33.129208 5.2336311,32.433001 Z" />
    <path
       id="path2-7"
       style="fill:url(#linearGradient24);stroke-width:2.5;stroke-linecap:round"
       d="m 40.558329,36.569268 c -1.200887,-0.735591 -3.855187,-4.258972 -6.16201,-6.827142 3.284217,0.856556 7.566507,1.70696 8.825821,2.478337 1.20089,0.735591 1.57809,2.305419 0.842497,3.506309 -0.735589,1.20089 -2.305418,1.578087 -3.506308,0.842496 z" />
    <path
       id="path2-59"
       style="fill:url(#linearGradient18);stroke-width:2.5;stroke-linecap:round"
       d="m 21.558037,44.390783 c -0.0245,-1.408061 1.521951,-5.539406 2.449285,-8.864608 1.041401,3.230362 2.624054,7.299321 2.649747,8.775884 0.0245,1.408056 -1.097096,2.569377 -2.505154,2.593876 -1.40806,0.0245 -2.569378,-1.097095 -2.593878,-2.505152 z" />
    <path
       id="path2-1"
       style="fill:url(#linearGradient14);stroke-width:2.5;stroke-linecap:round"
       d="m 43.44069,15.468922 c -1.18833,0.755716 -5.519516,1.592568 -8.83995,2.536841 2.212116,-2.574163 4.85711,-6.047664 6.103249,-6.840148 1.188323,-0.755723 2.764285,-0.405023 3.520006,0.783303 0.755722,1.188322 0.405022,2.764285 -0.783305,3.520004 z" />
    <path
       id="path2-4"
       style="fill:url(#linearGradient30);stroke-width:2.5;stroke-linecap:round"
       d="m 7.843228,10.711874 c 1.2371055,0.672905 4.068962,4.055233 6.504711,6.501462 C 11.024046,16.526684 6.7037098,15.89747 5.4064199,15.191826 4.1693154,14.518921 3.7119422,12.970551 4.3848481,11.733446 5.0577545,10.49634 6.6061232,10.038967 7.843228,10.711874 Z" />
  </g>
</svg>
