<?xml version="1.0" encoding="UTF-8" standalone="no"?>
<!-- Created with Inkscape (http://www.inkscape.org/) -->

<svg
   width="99.703896"
   height="77.424759"
   viewBox="0 0 26.379989 20.4853"
   version="1.1"
   id="svg1"
   xml:space="preserve"
   xmlns:xlink="http://www.w3.org/1999/xlink"
   xmlns="http://www.w3.org/2000/svg"
   xmlns:svg="http://www.w3.org/2000/svg"><defs
     id="defs1"><linearGradient
       id="linearGradient10"><stop
         style="stop-color:#ffffff;stop-opacity:1;"
         offset="0"
         id="stop10" /><stop
         style="stop-color:#d9d9d9;stop-opacity:1;"
         offset="1"
         id="stop11" /></linearGradient><linearGradient
       xlink:href="#linearGradient10"
       id="linearGradient11"
       x1="14.423388"
       y1="8.3200769"
       x2="14.423388"
       y2="28.153481"
       gradientUnits="userSpaceOnUse"
       gradientTransform="translate(-3.2020473,-7.3288134)" /></defs><g
     id="layer2"
     style="display:inline"
     transform="translate(-0.45444209,-0.4909855)"><path
       style="fill:url(#linearGradient11);fill-opacity:1;stroke:#000000;stroke-width:0.79375;stroke-dasharray:none;stroke-opacity:1"
       d="m 21.747669,20.579412 c 0,0 -7.597874,-4.12e-4 -11.364908,-4.12e-4 -3.7670346,0 -5.3116111,-1.508499 -6.4696242,-2.759722 C 1.9930435,15.744634 -0.30277821,11.624427 1.5129821,6.9817346 3.1719748,2.7398796 6.9983396,0.8878605 11.023557,0.8878605 c 4.183584,0 7.664804,3.0387527 9.237921,4.2650201 1.573117,1.2262674 6.176077,5.4417234 6.176077,9.8308504 0,3.71652 -2.292859,5.587146 -4.689886,5.595681 z"
       id="path1" /><path
       style="fill:none;stroke:#000000;stroke-width:1.32292;stroke-linecap:round;stroke-dasharray:none;stroke-opacity:1"
       d="M 7.1907785,8.2637185 6.8953278,10.76427"
       id="path2" /><path
       style="fill:none;stroke:#000000;stroke-width:1.32292;stroke-linecap:round;stroke-dasharray:none;stroke-opacity:1;paint-order:normal"
       d="m 14.67126,8.26346 -0.245081,2.663853"
       id="path3" /><path
       style="display:inline;fill:#cd2020;fill-opacity:1;stroke:#000000;stroke-width:0.661458;stroke-linecap:round;stroke-dasharray:none;stroke-opacity:1;paint-order:normal"
       d="m 11.545929,13.578076 c 1.11059,-0.04457 1.60795,0.249894 1.578406,1.314339 -0.01868,0.673058 -0.242791,1.712198 -0.42018,2.045287 -0.501802,0.942253 -1.73571,1.053781 -2.676825,0.416172 C 9.4173856,16.940635 8.8018894,16.275371 8.3810214,15.76404 7.5414776,14.744043 8.1373834,13.904803 9.3422808,13.756739 c 0.7901382,-0.0971 1.5124142,-0.150921 2.2036482,-0.178663 z"
       id="path4" /><path
       style="fill:none;stroke:#ff8613;stroke-width:0.79375;stroke-linecap:round;stroke-dasharray:none;stroke-opacity:1"
       d="m 4.2201921,12.917643 1.0505877,-0.04953"
       id="path5" /><path
       style="fill:none;stroke:#ff8513;stroke-width:0.79375;stroke-linecap:round;stroke-dasharray:none;stroke-opacity:1"
       d="m 15.995741,12.931365 1.235112,-0.06349"
       id="path6" /></g></svg>
